<svg width="460" height="100" xmlns="http://www.w3.org/2000/svg" xmlns:xlink="http://www.w3.org/1999/xlink">
  <defs>
    <g id="bg" class="bg" fill="#ff4651">
      <path d="m0,50a50,50 0 1 0 100,0a50,50 0 1 0 -100,0" id="svg_1"/>
    </g>
    <path id="i-2187"
          d="m24,0c-13.233,0 -24,10.767 -24,24s10.767,24 24,24s24,-10.767 24,-24s-10.767,-24 -24,-24zm0,46c-12.131,0 -22,-9.869 -22,-22s9.869,-22 22,-22s22,9.869 22,22s-9.869,22 -22,22zm0,-33c-6.065,0 -11,4.935 -11,11s4.935,11 11,11s11,-4.935 11,-11s-4.935,-11 -11,-11zm0,20c-4.963,0 -9,-4.037 -9,-9s4.037,-9 9,-9s9,4.037 9,9s-4.037,9 -9,9zm0,3.333l0,2c-7.903,0 -14.333,-6.43 -14.333,-14.333l2,0c0,6.801 5.532,12.333 12.333,12.333zm14.333,-12.333l-2,0c0,-6.801 -5.532,-12.334 -12.333,-12.334l0,-2c7.903,0 14.333,6.431 14.333,14.334zm-14.333,15.667l0,2c-9.741,0 -17.667,-7.926 -17.667,-17.667l2,0c0,8.639 7.028,15.667 15.667,15.667zm17.667,-15.667l-2,0c0,-8.639 -7.028,-15.666 -15.667,-15.666l0,-2c9.741,0 17.667,7.925 17.667,17.666zm-17.667,19l0,2c-11.579,0 -21,-9.421 -21,-21l2,0c0,10.477 8.523,19 19,19zm21,-19l-2,0c0,-10.477 -8.523,-19 -19,-19l0,-2c11.579,0 21,9.421 21,21zm-21,-3c-1.654,0 -3,1.346 -3,3s1.346,3 3,3s3,-1.346 3,-3s-1.346,-3 -3,-3zm0,4c-0.552,0 -1,-0.448 -1,-1s0.448,-1 1,-1s1,0.448 1,1s-0.448,1 -1,1z"
          fill="#ffffff"/>
  </defs>
  <g>
    <title>Layer 1</title>
    <use x="0" y="0" class="bg" xlink:href="#bg" id="svg_2"/>
    <use x="26" y="26" xlink:href="#i-2187" id="svg_3"/>
    <use x="0" y="0" xlink:href="#fg" id="svg_4"/>
    <text fill="#FFFFFF" strokeWidth="0" x="108.3342" y="53.026" id="svg_5" font-size="64" font-family="'Montserrat'"
          xml:space="preserve" font-weight="bold" stroke="#000"
          transform="matrix(0.934089 0 0 1.43212 2.72365 4.14555)">MIXYBOOS</text>
  </g>
</svg>
